<svg width="366" height="66" viewBox="0 0 366 66" fill="none" xmlns="http://www.w3.org/2000/svg">
<path d="M104.252 45L102.452 39.024H94.064L92.264 45H86.72L95 19.872H101.768L109.94 45H104.252ZM98.312 24.84H98.132L95.36 34.38H101.12L98.312 24.84ZM132.209 28.512H132.101L130.265 32.184L125.369 41.076L120.581 32.22L118.673 28.26H118.565V45H113.417V19.872H119.213L125.369 31.644H125.441L131.525 19.872H137.357V45H132.209V28.512ZM148.385 45H142.913V19.872H154.829C155.981 19.872 157.025 20.064 157.961 20.448C158.897 20.832 159.689 21.384 160.337 22.104C161.009 22.8 161.525 23.64 161.885 24.624C162.245 25.608 162.425 26.7 162.425 27.9C162.425 29.604 162.041 31.092 161.273 32.364C160.529 33.636 159.389 34.56 157.853 35.136L162.785 45H156.701L152.309 35.784H148.385V45ZM154.145 31.176C154.961 31.176 155.597 30.972 156.053 30.564C156.533 30.132 156.773 29.508 156.773 28.692V27.108C156.773 26.292 156.533 25.68 156.053 25.272C155.597 24.84 154.961 24.624 154.145 24.624H148.385V31.176H154.145ZM166.198 45V40.644H169.438V24.228H166.198V19.872H178.15V24.228H174.91V40.644H178.15V45H166.198ZM193.045 24.732V45H187.573V24.732H180.769V19.872H199.849V24.732H193.045ZM220.236 45.432C218.028 45.432 216.156 45.06 214.62 44.316C213.084 43.548 211.776 42.564 210.696 41.364L214.296 37.728C216 39.648 218.1 40.608 220.596 40.608C221.94 40.608 222.936 40.332 223.584 39.78C224.232 39.228 224.556 38.496 224.556 37.584C224.556 36.888 224.364 36.312 223.98 35.856C223.596 35.376 222.816 35.052 221.64 34.884L219.156 34.56C216.492 34.224 214.536 33.42 213.288 32.148C212.064 30.876 211.452 29.184 211.452 27.072C211.452 25.944 211.668 24.912 212.1 23.976C212.532 23.04 213.144 22.236 213.936 21.564C214.752 20.892 215.736 20.376 216.888 20.016C218.064 19.632 219.396 19.44 220.884 19.44C222.78 19.44 224.448 19.74 225.888 20.34C227.328 20.94 228.564 21.816 229.596 22.968L225.96 26.64C225.36 25.944 224.628 25.38 223.764 24.948C222.924 24.492 221.856 24.264 220.56 24.264C219.336 24.264 218.424 24.48 217.824 24.912C217.224 25.344 216.924 25.944 216.924 26.712C216.924 27.576 217.152 28.2 217.608 28.584C218.088 28.968 218.856 29.244 219.912 29.412L222.396 29.808C224.988 30.216 226.908 31.02 228.156 32.22C229.404 33.396 230.028 35.076 230.028 37.26C230.028 38.46 229.812 39.564 229.38 40.572C228.948 41.58 228.312 42.444 227.472 43.164C226.656 43.884 225.636 44.448 224.412 44.856C223.188 45.24 221.796 45.432 220.236 45.432ZM249.613 34.704H240.037V45H234.565V19.872H240.037V29.88H249.613V19.872H255.085V45H249.613V34.704ZM276.096 45L274.296 39.024H265.908L264.108 45H258.564L266.844 19.872H273.612L281.784 45H276.096ZM270.156 24.84H269.976L267.204 34.38H272.964L270.156 24.84ZM290.732 45H285.26V19.872H297.176C298.328 19.872 299.372 20.064 300.308 20.448C301.244 20.832 302.036 21.384 302.684 22.104C303.356 22.8 303.872 23.64 304.232 24.624C304.592 25.608 304.772 26.7 304.772 27.9C304.772 29.604 304.388 31.092 303.62 32.364C302.876 33.636 301.736 34.56 300.2 35.136L305.132 45H299.048L294.656 35.784H290.732V45ZM296.492 31.176C297.308 31.176 297.944 30.972 298.4 30.564C298.88 30.132 299.12 29.508 299.12 28.692V27.108C299.12 26.292 298.88 25.68 298.4 25.272C297.944 24.84 297.308 24.624 296.492 24.624H290.732V31.176H296.492ZM328.31 28.512H328.202L326.366 32.184L321.47 41.076L316.682 32.22L314.774 28.26H314.666V45H309.518V19.872H315.314L321.47 31.644H321.542L327.626 19.872H333.458V45H328.31V28.512ZM354.494 45L352.694 39.024H344.306L342.506 45H336.962L345.242 19.872H352.01L360.182 45H354.494ZM348.554 24.84H348.374L345.602 34.38H351.362L348.554 24.84Z" fill="white"/>
<ellipse cx="33.5" cy="33" rx="33.5" ry="33" fill="white"/>
<path d="M43.3813 42.5308C43.3422 42.7521 43.2511 42.9084 43.1078 42.9995C42.9776 43.1037 42.8539 43.2469 42.7368 43.4292H42.6586C42.5284 43.4292 42.3982 43.4422 42.268 43.4683C42.1508 43.4943 42.0271 43.5269 41.8969 43.5659C41.8318 43.5399 41.7537 43.5203 41.6625 43.5073C41.5714 43.4943 41.5128 43.4487 41.4868 43.3706C41.3826 43.4227 41.2394 43.4487 41.0571 43.4487C40.7576 43.4487 40.4711 43.3641 40.1977 43.1948C39.9373 43.0256 39.6638 42.8953 39.3774 42.8042C39.2993 42.6479 39.2016 42.5047 39.0844 42.3745C38.9802 42.2573 38.8696 42.1401 38.7524 42.0229C38.6482 41.9058 38.544 41.7821 38.4399 41.6519C38.3357 41.5216 38.2511 41.3654 38.186 41.1831C38.1599 41.105 38.1274 41.0594 38.0883 41.0464C38.0493 41.0334 37.9907 41.0334 37.9125 41.0464C37.9256 40.9032 37.906 40.7795 37.8539 40.6753C37.8149 40.5711 37.7172 40.506 37.561 40.48C37.561 40.3107 37.5349 40.1675 37.4828 40.0503C37.4308 39.9331 37.3657 39.8289 37.2875 39.7378C37.2224 39.6597 37.1443 39.575 37.0532 39.4839C36.975 39.3927 36.9099 39.2821 36.8578 39.1519C36.7407 39.1258 36.6235 39.1063 36.5063 39.0933C36.4021 39.0933 36.2849 39.0933 36.1547 39.0933C35.5297 39.0933 34.9243 39.2104 34.3383 39.4448C34.2732 39.4709 34.2016 39.5034 34.1235 39.5425C34.0584 39.5815 33.9933 39.6141 33.9282 39.6401C33.9021 39.6401 33.8761 39.6401 33.85 39.6401C33.837 39.6532 33.8175 39.6597 33.7914 39.6597C33.7003 39.6597 33.6157 39.6401 33.5375 39.6011C33.4594 39.575 33.3748 39.562 33.2836 39.562C33.2446 39.562 33.199 39.5685 33.1469 39.5815C33.1078 39.6076 33.0688 39.6271 33.0297 39.6401C32.8344 39.7052 32.6521 39.7443 32.4828 39.7573C31.949 39.8615 31.3826 39.9396 30.7836 39.9917C30.1977 40.0438 29.6573 40.1805 29.1625 40.4019C29.0584 40.4539 28.9933 40.5321 28.9672 40.6362C28.9412 40.7534 28.9347 40.8641 28.9477 40.9683C28.8045 41.0724 28.6938 41.2091 28.6157 41.3784C28.5506 41.5477 28.4855 41.7235 28.4203 41.9058C28.3683 42.1011 28.3097 42.2899 28.2446 42.4722C28.1795 42.6545 28.0883 42.8107 27.9711 42.9409C28.0102 43.019 28.0297 43.1037 28.0297 43.1948C28.0297 43.3901 27.9646 43.5854 27.8344 43.7808C27.7042 43.9761 27.6065 44.1649 27.5414 44.3472C27.4763 44.5295 27.4243 44.7052 27.3852 44.8745C27.3461 45.0568 27.2875 45.2196 27.2094 45.3628C27.1313 45.506 27.0271 45.6232 26.8969 45.7144C26.7537 45.8055 26.5584 45.8511 26.311 45.8511C26.0766 45.8511 25.8748 45.8055 25.7055 45.7144C25.5362 45.6232 25.3995 45.506 25.2953 45.3628C25.1912 45.2196 25.1065 45.0503 25.0414 44.855C24.9763 44.6597 24.9243 44.4644 24.8852 44.269C25.0284 43.9826 25.1651 43.7352 25.2953 43.5269C25.4256 43.3185 25.5232 43.0516 25.5883 42.7261C25.8227 42.5568 25.9985 42.3485 26.1157 42.1011C26.2198 41.8667 26.2784 41.6063 26.2914 41.3198C26.4347 41.2287 26.5388 41.105 26.6039 40.9487C26.656 40.8055 26.6886 40.6493 26.7016 40.48C26.3891 40.4539 26.0636 40.4279 25.725 40.4019C25.3735 40.3758 25.048 40.3107 24.7485 40.2065C24.7485 40.1805 24.755 40.1545 24.768 40.1284C24.768 40.1024 24.768 40.0763 24.768 40.0503C24.768 39.881 24.7289 39.7248 24.6508 39.5815C24.5727 39.4513 24.5336 39.3081 24.5336 39.1519V38.9956C24.6378 38.8914 24.7355 38.7808 24.8266 38.6636C24.9047 38.5594 24.9894 38.4618 25.0805 38.3706C25.1717 38.2795 25.2758 38.2013 25.393 38.1362C25.5102 38.0841 25.6599 38.0581 25.8422 38.0581C26.0896 38.0581 26.3305 38.0711 26.5649 38.0972C26.7993 38.1362 27.0401 38.1558 27.2875 38.1558C27.4568 38.1558 27.6326 38.1362 27.8149 38.0972C28.1013 37.5112 28.3552 36.9188 28.5766 36.3198C28.798 35.7078 28.9672 35.0894 29.0844 34.4644C29.1756 34.3341 29.2602 34.1844 29.3383 34.0151C29.4164 33.8328 29.475 33.644 29.5141 33.4487C29.5662 33.2534 29.5987 33.0646 29.6118 32.8823C29.6378 32.687 29.6508 32.5112 29.6508 32.355C29.794 32.1857 29.8917 31.9774 29.9438 31.73C30.0089 31.4826 30.061 31.2287 30.1 30.9683C30.1391 30.6948 30.1782 30.4279 30.2172 30.1675C30.2693 29.9071 30.3605 29.6792 30.4907 29.4839V29.3081C30.5037 29.1128 30.4842 28.937 30.4321 28.7808C30.4972 28.7547 30.5362 28.6961 30.5493 28.605C30.5623 28.5138 30.5883 28.4357 30.6274 28.3706C30.6404 27.7716 30.7055 27.1857 30.8227 26.6128C30.9399 26.0269 31.0375 25.4409 31.1157 24.855V24.7964C31.1157 24.7313 31.0896 24.6987 31.0375 24.6987C30.9985 24.6857 30.9789 24.6466 30.9789 24.5815C30.9789 24.4644 30.992 24.3081 31.018 24.1128C31.0571 23.9175 31.0831 23.7547 31.0961 23.6245C31.1743 22.9214 31.2133 22.2248 31.2133 21.5347C31.2133 20.9487 31.1938 20.3693 31.1547 19.7964C31.1157 19.2235 31.0766 18.644 31.0375 18.0581L31.1938 17.8237C31.2459 17.7456 31.2914 17.6675 31.3305 17.5894C31.4607 17.5373 31.5649 17.4852 31.643 17.4331C31.7342 17.368 31.8513 17.3354 31.9946 17.3354C32.0336 17.3354 32.0662 17.342 32.0922 17.355C32.1183 17.355 32.1443 17.355 32.1703 17.355C32.2485 17.4071 32.3071 17.4787 32.3461 17.5698C32.3982 17.661 32.4438 17.7456 32.4828 17.8237C32.5349 17.9019 32.6 17.967 32.6782 18.019C32.7563 18.0711 32.867 18.0841 33.0102 18.0581C33.0753 18.4227 33.2576 18.6115 33.5571 18.6245C33.6222 18.8068 33.7003 18.9891 33.7914 19.1714C33.8956 19.3537 34.0323 19.4969 34.2016 19.6011C34.1886 19.6532 34.1821 19.7248 34.1821 19.8159C34.1821 19.9982 34.2211 20.174 34.2993 20.3433C34.3904 20.5125 34.5011 20.6688 34.6313 20.812V20.8511C34.6313 20.9943 34.5792 21.092 34.475 21.144C34.5922 21.2743 34.6769 21.4305 34.7289 21.6128C34.781 21.7951 34.8266 21.9839 34.8657 22.1792C34.9047 22.3615 34.9503 22.5373 35.0024 22.7065C35.0675 22.8758 35.1717 23.006 35.3149 23.0972V23.1558C35.3149 23.2209 35.2888 23.2599 35.2368 23.2729C35.1977 23.286 35.1782 23.325 35.1782 23.3901C35.4125 23.8198 35.5753 24.2886 35.6664 24.7964C35.7576 25.3042 35.8748 25.7925 36.018 26.2612C36.0701 26.3133 36.1287 26.3459 36.1938 26.3589C36.2719 26.3719 36.3305 26.4045 36.3696 26.4565C36.2914 26.5086 36.2524 26.5998 36.2524 26.73C36.2524 26.8602 36.2198 26.9578 36.1547 27.0229C36.2589 27.1141 36.3045 27.2508 36.2914 27.4331C36.2914 27.6024 36.3435 27.7261 36.4477 27.8042V27.8823C36.4477 27.9344 36.4347 27.98 36.4086 28.019C36.3826 28.0451 36.3696 28.0841 36.3696 28.1362V28.2144C36.4737 28.6701 36.5519 29.1258 36.6039 29.5815C36.669 30.0373 36.7342 30.493 36.7993 30.9487C36.8644 31.4045 36.936 31.8602 37.0141 32.3159C37.0922 32.7586 37.2029 33.1948 37.3461 33.6245C37.3592 33.6375 37.3657 33.6571 37.3657 33.6831C37.3657 33.7482 37.3396 33.7873 37.2875 33.8003C37.2355 33.8003 37.2094 33.8328 37.2094 33.8979C37.2094 33.9631 37.2289 34.0412 37.268 34.1323C37.3201 34.2104 37.3722 34.2756 37.4243 34.3276C37.4112 34.3797 37.4047 34.4578 37.4047 34.562C37.4047 34.7573 37.4373 34.9461 37.5024 35.1284C37.5805 35.3107 37.6586 35.493 37.7368 35.6753C37.8279 35.8446 37.906 36.0269 37.9711 36.2222C38.0362 36.4175 38.0623 36.6258 38.0493 36.8472C38.1274 36.9644 38.225 37.062 38.3422 37.1401C38.4724 37.2183 38.6026 37.2899 38.7328 37.355C38.8631 37.4201 38.9802 37.4982 39.0844 37.5894C39.2016 37.6805 39.2797 37.8042 39.3188 37.9604C39.2146 38.0516 39.143 38.1623 39.1039 38.2925C39.0649 38.4357 38.9933 38.5594 38.8891 38.6636C38.9802 38.8849 39.0844 39.0868 39.2016 39.269C39.3318 39.4644 39.462 39.6532 39.5922 39.8354L40.0024 40.3823C40.1456 40.5646 40.2693 40.7599 40.3735 40.9683C40.5167 40.9683 40.6209 41.0073 40.686 41.0854C40.7511 41.1636 40.8552 41.1961 40.9985 41.1831C41.0506 41.2873 41.0701 41.4045 41.0571 41.5347C41.3175 41.4435 41.5779 41.3979 41.8383 41.3979C41.9815 41.3979 42.1118 41.4045 42.2289 41.4175C42.3592 41.4305 42.4894 41.437 42.6196 41.437C42.7758 41.437 42.9125 41.4175 43.0297 41.3784C43.0818 41.4565 43.1209 41.5412 43.1469 41.6323C43.173 41.7365 43.1925 41.8407 43.2055 41.9448L43.2641 42.2573C43.2901 42.3615 43.3292 42.4526 43.3813 42.5308ZM36.018 37.1206C35.8357 36.2222 35.6469 35.3302 35.4516 34.4448C35.2693 33.5464 35.1065 32.6414 34.9633 31.73C34.8852 31.2482 34.8266 30.7664 34.7875 30.2847C34.7485 29.8029 34.6964 29.3276 34.6313 28.8589C34.5792 28.3771 34.5011 27.9019 34.3969 27.4331C34.3058 26.9644 34.169 26.5021 33.9868 26.0464V26.0073C33.9868 25.9683 33.9998 25.9357 34.0258 25.9097C34.0519 25.8836 34.0649 25.8381 34.0649 25.7729V25.6948C33.8956 25.5776 33.7784 25.4149 33.7133 25.2065C33.6482 24.9852 33.5896 24.7573 33.5375 24.5229C33.4985 24.2756 33.4399 24.0412 33.3618 23.8198C33.2967 23.5854 33.1795 23.3901 33.0102 23.2339C32.9451 23.9891 32.8735 24.7443 32.7953 25.4995C32.7302 26.2417 32.6847 26.9904 32.6586 27.7456C32.5284 27.8237 32.4438 27.9539 32.4047 28.1362C32.3657 28.3185 32.3461 28.4813 32.3461 28.6245C32.3461 28.7287 32.3526 28.8394 32.3657 28.9565C32.3787 29.0607 32.4047 29.1714 32.4438 29.2886C32.2094 29.8745 32.0401 30.48 31.936 31.105C31.8318 31.717 31.7146 32.3289 31.5844 32.9409C31.5714 32.98 31.5453 33.0711 31.5063 33.2144C31.4802 33.3446 31.4477 33.4813 31.4086 33.6245C31.3696 33.7677 31.337 33.8979 31.311 34.0151C31.2849 34.1193 31.2719 34.1779 31.2719 34.1909C31.2589 34.2821 31.2524 34.3732 31.2524 34.4644C31.2654 34.5555 31.2719 34.6466 31.2719 34.7378L30.9789 35.0308C30.9269 35.5256 30.8292 36.0073 30.686 36.4761C30.5558 36.9318 30.419 37.4006 30.2758 37.8823C30.367 37.8953 30.4516 37.9019 30.5297 37.9019C30.6209 37.9149 30.712 37.9214 30.8032 37.9214C31.2198 37.9214 31.6365 37.8953 32.0532 37.8433C32.4828 37.7782 32.906 37.7196 33.3227 37.6675C33.4659 37.6414 33.6157 37.6219 33.7719 37.6089C33.9282 37.5828 34.0779 37.5698 34.2211 37.5698C34.2862 37.5568 34.3644 37.5568 34.4555 37.5698C34.5467 37.5698 34.6248 37.5633 34.6899 37.5503C34.794 37.5243 34.8592 37.4852 34.8852 37.4331C34.9243 37.368 34.9959 37.3289 35.1 37.3159C35.1782 37.355 35.2693 37.3745 35.3735 37.3745C35.4907 37.3745 35.6013 37.3485 35.7055 37.2964C35.8097 37.2443 35.9138 37.1857 36.018 37.1206Z" fill="black"/>
</svg>
